<?xml version="1.0" standalone="no"?>
<!DOCTYPE svg PUBLIC "-//W3C//DTD SVG 20010904//EN"
 "http://www.w3.org/TR/2001/REC-SVG-20010904/DTD/svg10.dtd">
<svg version="1.0" xmlns="http://www.w3.org/2000/svg"
 width="512.000000pt" height="512.000000pt" viewBox="0 0 512.000000 512.000000"
 preserveAspectRatio="xMidYMid meet">

<g transform="translate(0.000000,512.000000) scale(0.100000,-0.100000)"
fill="#000000" stroke="none">
<path d="M2413 5006 c-215 -41 -404 -151 -539 -314 -67 -81 -146 -238 -176
-347 -30 -114 -30 -326 0 -440 30 -109 99 -246 165 -329 73 -90 110 -161 142
-271 30 -106 59 -153 109 -180 34 -18 36 -22 36 -70 0 -27 5 -67 11 -88 11
-41 60 -103 88 -112 10 -3 23 -24 30 -47 18 -58 111 -149 175 -171 117 -40
231 -14 318 73 37 37 60 71 69 98 7 23 20 44 30 47 28 9 77 71 88 112 6 21 11
61 11 88 0 48 2 52 36 70 50 27 79 74 109 180 30 104 75 189 147 277 62 77
131 216 160 323 30 114 30 326 0 440 -30 109 -109 266 -176 347 -116 140 -296
254 -471 299 -103 26 -267 33 -362 15z m332 -170 c86 -23 210 -87 283 -146
300 -245 352 -710 113 -1008 -79 -98 -127 -187 -166 -307 -20 -60 -41 -113
-48 -117 -7 -4 -49 -8 -94 -8 l-81 0 -4 223 c-3 247 -7 261 -73 314 -35 28
-35 28 -35 112 l0 83 29 -31 29 -31 184 0 c197 1 208 3 227 53 11 29 2 65 -21
85 -9 7 -67 12 -164 14 l-149 3 -30 56 c-42 79 -62 99 -100 99 -30 0 -66 -24
-79 -52 -5 -11 -7 -11 -12 0 -13 28 -49 52 -79 52 -38 0 -58 -20 -100 -99
l-30 -56 -149 -3 c-97 -2 -155 -7 -164 -14 -23 -20 -32 -56 -21 -85 19 -50 30
-52 227 -53 l184 0 29 31 29 31 0 -83 c0 -84 0 -84 -35 -112 -66 -53 -70 -67
-73 -314 l-4 -223 -78 0 c-43 0 -85 3 -94 6 -9 3 -26 42 -42 92 -35 117 -83
213 -148 297 -76 98 -110 158 -143 250 -26 74 -28 91 -28 230 0 138 2 156 28
230 40 114 100 209 182 290 107 105 229 170 374 201 81 17 242 12 326 -10z
m-157 -1378 l2 -208 -30 0 -30 0 0 203 c0 112 3 207 7 211 4 4 16 6 28 4 19
-3 20 -10 23 -210z m222 -408 c0 -45 -3 -52 -26 -60 -14 -6 -115 -10 -224 -10
-109 0 -210 4 -224 10 -23 8 -26 15 -26 60 l0 50 250 0 250 0 0 -50z m-155
-240 c-28 -31 -87 -45 -133 -32 -21 7 -47 21 -57 32 -18 20 -18 20 95 20 113
0 113 0 95 -20z"/>
<path d="M1225 2886 c-167 -28 -349 -105 -485 -206 -257 -191 -428 -524 -430
-837 l0 -83 -80 -157 c-43 -87 -112 -207 -151 -268 -74 -112 -88 -155 -61
-188 7 -8 49 -37 93 -64 67 -40 79 -51 73 -68 -4 -11 -9 -41 -11 -66 -4 -39
-1 -50 22 -77 23 -27 26 -38 21 -68 -9 -47 9 -98 46 -129 l30 -26 2 -122 c1
-110 3 -126 26 -167 33 -59 97 -94 155 -85 22 3 131 42 242 85 111 44 204 80
206 80 14 0 120 -155 147 -215 17 -38 35 -77 39 -85 20 -38 39 -40 602 -40
538 0 547 0 573 21 38 30 34 70 -18 180 -82 176 -136 359 -136 463 0 64 37
160 160 416 152 316 183 423 183 635 1 133 -11 211 -50 330 -112 347 -415 630
-771 721 -120 31 -308 40 -427 20z m425 -181 c314 -102 541 -331 637 -642 25
-80 27 -102 27 -248 -1 -145 -3 -168 -28 -250 -15 -49 -76 -191 -136 -315 -59
-124 -125 -274 -145 -334 -35 -101 -37 -115 -31 -183 11 -118 62 -298 131
-455 7 -17 -18 -18 -434 -18 l-441 0 -26 53 c-15 28 -47 81 -71 116 -35 48
-42 65 -33 71 32 20 259 72 340 78 105 9 130 25 130 82 0 70 -51 89 -182 71
-171 -24 -397 -95 -731 -227 -103 -41 -192 -72 -196 -69 -16 9 -19 70 -9 184
l11 114 -27 24 c-15 13 -34 23 -42 23 -19 0 -17 10 6 40 39 50 21 117 -37 134
l-23 7 25 33 c31 41 32 86 3 113 -13 11 -58 40 -100 64 l-77 45 61 99 c33 55
93 168 133 250 l73 150 6 115 c9 154 36 264 96 386 124 254 333 426 610 499
86 23 110 25 245 22 130 -4 161 -8 235 -32z"/>
<path d="M3576 2889 c-398 -58 -755 -360 -879 -744 -40 -125 -50 -190 -50
-325 -1 -215 30 -322 183 -640 146 -305 164 -354 156 -450 -7 -97 -54 -256
-118 -394 -28 -61 -53 -129 -55 -152 -4 -36 -1 -44 22 -63 28 -21 31 -21 574
-21 563 0 582 2 602 40 4 8 22 47 39 85 27 62 133 215 148 215 3 0 95 -36 206
-80 111 -43 219 -82 241 -85 58 -9 122 26 155 85 23 41 25 57 26 167 l2 122
30 26 c37 31 55 82 46 129 -5 30 -2 41 21 68 23 27 26 38 22 77 -2 25 -7 55
-11 66 -6 17 5 27 72 67 43 26 85 55 92 64 29 34 16 75 -57 187 -39 60 -106
177 -149 260 l-78 152 -7 120 c-29 456 -311 831 -735 976 -154 52 -344 70
-498 48z m331 -164 c297 -63 529 -245 658 -517 56 -119 84 -235 91 -379 l5
-114 73 -150 c41 -82 101 -195 134 -250 l61 -99 -77 -45 c-42 -24 -87 -53 -99
-64 -30 -27 -29 -72 2 -113 l25 -33 -23 -7 c-58 -17 -76 -84 -37 -134 23 -30
25 -40 6 -40 -8 0 -27 -10 -42 -23 l-27 -24 11 -114 c10 -114 7 -175 -9 -184
-4 -3 -93 28 -196 69 -382 151 -641 227 -788 230 -99 1 -125 -14 -125 -74 0
-57 25 -73 130 -82 81 -6 308 -58 340 -78 9 -6 2 -23 -33 -71 -24 -35 -56 -88
-71 -116 l-26 -53 -441 0 c-416 0 -441 1 -434 18 69 157 120 337 131 455 6 68
4 82 -31 183 -20 60 -86 210 -145 334 -60 124 -121 266 -136 315 -25 82 -27
105 -28 250 0 146 2 168 27 248 104 336 374 587 712 662 82 18 278 18 362 0z"/>
</g>
</svg>
