<svg width="714" height="458" viewBox="0 0 714 458" fill="none" xmlns="http://www.w3.org/2000/svg">
<g clip-path="url(#clip0_15_657)">
<path d="M714 0.405045H0.304749V458H714V0.405045Z" fill="#E6E6E6"/>
<path d="M693.592 57.7989H20.7127V430.929H693.592V57.7989Z" fill="white"/>
<path d="M713.695 0H0V30.3544H713.695V0Z" fill="#B17FE2"/>
<path d="M22.5317 21.1447C25.6353 21.1447 28.1513 18.6259 28.1513 15.5188C28.1513 12.4116 25.6353 9.89282 22.5317 9.89282C19.4281 9.89282 16.912 12.4116 16.912 15.5188C16.912 18.6259 19.4281 21.1447 22.5317 21.1447Z" fill="white"/>
<path d="M43.8624 21.1447C46.9661 21.1447 49.4821 18.6259 49.4821 15.5188C49.4821 12.4116 46.9661 9.89282 43.8624 9.89282C40.7588 9.89282 38.2428 12.4116 38.2428 15.5188C38.2428 18.6259 40.7588 21.1447 43.8624 21.1447Z" fill="white"/>
<path d="M65.1933 21.1447C68.2969 21.1447 70.8129 18.6259 70.8129 15.5188C70.8129 12.4116 68.2969 9.89282 65.1933 9.89282C62.0896 9.89282 59.5736 12.4116 59.5736 15.5188C59.5736 18.6259 62.0896 21.1447 65.1933 21.1447Z" fill="white"/>
<path d="M235.108 88.4886H103.503V231.429H235.108V88.4886Z" fill="#E6E6E6"/>
<path d="M422.953 88.4886H291.348V231.429H422.953V88.4886Z" fill="#E6E6E6"/>
<path d="M610.799 88.4886H479.193V231.429H610.799V88.4886Z" fill="#E6E6E6"/>
<path d="M235.108 257.302H103.503V400.242H235.108V257.302Z" fill="#E6E6E6"/>
<path d="M422.953 257.302H291.348V400.242H422.953V257.302Z" fill="#E6E6E6"/>
<path d="M610.799 257.302H479.193V400.242H610.799V257.302Z" fill="#E6E6E6"/>
<path d="M154.623 174.92C166.909 174.92 176.869 164.949 176.869 152.649C176.869 140.349 166.909 130.377 154.623 130.377C142.336 130.377 132.376 140.349 132.376 152.649C132.376 164.949 142.336 174.92 154.623 174.92Z" fill="#FFB9B9"/>
<path d="M145.933 169.7C145.933 169.7 148.713 182.924 148.713 184.316C148.713 185.708 161.922 191.972 161.922 191.972L173.741 189.884L177.912 177.356C177.912 177.356 170.96 166.916 170.96 162.74L145.933 169.7Z" fill="#FFB9B9"/>
<path d="M135.331 134.705C135.331 134.705 142.394 119.385 155.932 122.92C169.469 126.456 177.121 131.759 177.71 137.062C178.298 142.366 177.415 150.321 177.415 150.321C177.415 150.321 175.944 139.42 166.526 141.777C157.109 144.134 142.394 142.366 142.394 142.366L140.039 163.579C140.039 163.579 137.391 159.749 134.448 162.106C131.505 164.463 125.913 139.42 135.331 134.705Z" fill="#2F2E41"/>
<path d="M225.183 226.076L219.626 201.016C216.839 192.663 209.893 185.709 209.893 185.709L175.609 173.639H175.601C175.534 176.673 174.512 179.608 172.681 182.027C170.851 184.445 168.304 186.224 165.404 187.109C154.973 190.581 147.791 178.878 147.791 178.878L118.81 201.016C118.81 201.016 109.776 208.678 110.475 223.294L109.514 231.429H227.856L225.183 226.076Z" fill="#B17FE2"/>
<path d="M341.965 186.019C358.642 186.019 372.161 171.652 372.161 153.929C372.161 136.207 358.642 121.84 341.965 121.84C325.289 121.84 311.77 136.207 311.77 153.929C311.77 171.652 325.289 186.019 341.965 186.019Z" fill="#2F2E41"/>
<path d="M368.757 202.489C377.53 202.489 384.642 195.37 384.642 186.587C384.642 177.804 377.53 170.684 368.757 170.684C359.984 170.684 352.872 177.804 352.872 186.587C352.872 195.37 359.984 202.489 368.757 202.489Z" fill="#2F2E41"/>
<path d="M357.694 165.289L366.204 187.438L344.646 196.526L342.753 192.231L336.135 177.216L357.694 165.289Z" fill="#9F616A"/>
<path d="M340.675 179.771C351.171 179.771 359.68 171.253 359.68 160.745C359.68 150.237 351.171 141.719 340.675 141.719C330.178 141.719 321.669 150.237 321.669 160.745C321.669 171.253 330.178 179.771 340.675 179.771Z" fill="#9F616A"/>
<path d="M325.14 158.658C337.086 150.678 340.657 148.771 354.349 151.853L355.17 131.855L319.788 139.286L325.14 158.658Z" fill="#2F2E41"/>
<path d="M401.941 203.903L401.417 203.964C401.404 203.945 401.389 203.927 401.373 203.911C399.294 201.83 389.368 198.042 381.968 195.418H381.96C377.259 193.747 373.581 192.549 373.581 192.549L364.634 183.339C362.38 185.875 357.618 187.835 353.093 189.217C349.628 190.267 346.103 191.108 342.538 191.736H342.529L340.677 197.657C340.677 197.657 319.682 213.568 317.987 215.265H317.979V215.282C317.843 215.475 317.787 215.713 317.821 215.947V215.991C316.762 221.069 316.218 226.241 316.196 231.429H407.62V226.058C407.62 218.676 401.941 203.903 401.941 203.903Z" fill="#575A89"/>
<path d="M570.058 231.429H524.853L522.363 206.841L522.214 205.346L521.909 202.381L520.659 189.986L519.095 203.299L515.793 231.429H507.58L507.886 222.673L508.192 213.795L508.323 210.218L510.009 161.551C509.88 153.838 512.317 146.302 516.937 140.13C519.502 136.786 522.812 134.089 526.603 132.253C530.394 130.417 534.56 129.493 538.771 129.555C543.067 129.541 547.308 130.523 551.161 132.424C555.014 134.326 558.375 137.095 560.98 140.515C565.756 146.749 568.311 154.403 568.241 162.259L569.018 191.718L570.058 231.429Z" fill="#2F2E41"/>
<path d="M538.771 178.966C549.753 178.966 558.655 170.054 558.655 159.06C558.655 148.066 549.753 139.154 538.771 139.154C527.79 139.154 518.888 148.066 518.888 159.06C518.888 170.054 527.79 178.966 538.771 178.966Z" fill="#FBBEBE"/>
<path d="M528.83 173.279C528.83 173.279 534.511 192.474 528.83 198.161C523.148 203.848 521.728 205.981 521.728 205.981L538.061 228.02L566.466 193.185C566.466 193.185 546.583 187.497 551.554 171.857L528.83 173.279Z" fill="#FBBEBE"/>
<path d="M590.17 231.429H573.395L573.116 228.551L572.862 225.892L580.586 224.921L589.9 223.758L590.004 226.74L590.17 231.429Z" fill="#FBBEBE"/>
<path d="M591.321 226.598C591.321 226.598 588.48 208.825 586.35 201.716C584.22 194.606 582.089 194.606 582.089 194.606H582.089L582.089 194.605C579.582 192.094 573.553 191.648 569.018 191.718C565.838 191.753 563.392 192.033 563.392 192.033L538.063 218.781L525.307 201.803V201.795C524.159 201.884 523.021 202.08 521.909 202.381C520.952 202.625 520.012 202.931 519.095 203.299C515.145 204.989 511.504 207.327 508.323 210.218H508.314C506.479 211.871 505.396 213.087 505.396 213.087C502.586 218.934 500.469 225.09 499.088 231.429H580.254L580.438 227.773V227.766L591.321 226.598Z" fill="#B17FE2"/>
<path d="M522.083 155.861C534.925 148.93 540.201 149.223 556.17 155.861L560.43 145.468C560.428 143.512 559.651 141.636 558.269 140.252C556.886 138.868 555.012 138.09 553.058 138.088H524.485C522.53 138.09 520.656 138.868 519.274 140.252C517.892 141.636 517.115 143.512 517.112 145.468L522.083 155.861Z" fill="#2F2E41"/>
<path d="M167.565 291.899C166.507 291.812 165.448 292.049 164.527 292.578C163.654 293.324 162.953 294.25 162.473 295.294C160.249 299.202 157.24 302.605 153.634 305.288C151.008 307.215 147.669 309.616 148.118 313.167C148.355 314.34 148.788 315.464 149.399 316.493C151.821 321.389 158.432 325.173 157.782 330.76C160.189 326.726 156.97 324.731 159.377 320.697C160.523 318.776 162.514 316.607 164.245 317.813C164.824 318.217 165.205 318.942 165.808 319.296C167.248 320.142 168.78 318.525 170.054 317.38C174.449 313.431 180.698 314.465 186.167 315.696C188.748 316.277 191.584 317.039 193.11 319.509C195.117 322.757 191.204 326.265 190.215 329.937C190.134 330.25 190.13 330.577 190.204 330.892C190.277 331.207 190.426 331.499 190.637 331.744C190.847 331.988 191.114 332.178 191.414 332.297C191.714 332.416 192.039 332.461 192.36 332.427C194.001 332.265 195.945 332.132 196.042 331.411C198.106 331.485 200.636 331.251 201.52 329.098C201.791 328.247 201.934 327.36 201.944 326.467C202.269 322.852 203.802 319.554 204.817 316.113C205.832 312.672 206.274 308.64 204.56 305.59C203.949 304.575 203.192 303.655 202.315 302.858C192.592 293.438 179.809 291.885 167.565 291.899Z" fill="#2F2E41"/>
<path d="M159.897 337.816C159.897 337.816 162.011 355.458 154.258 356.869C146.504 358.28 161.306 382.273 161.306 382.273L196.55 386.507L188.091 358.28C188.091 358.28 182.452 356.163 185.977 342.05C189.501 327.937 159.897 337.816 159.897 337.816Z" fill="#9F616A"/>
<path d="M175.756 349.46C187.435 349.46 196.902 339.982 196.902 328.29C196.902 316.598 187.435 307.12 175.756 307.12C164.078 307.12 154.61 316.598 154.61 328.29C154.61 339.982 164.078 349.46 175.756 349.46Z" fill="#9F616A"/>
<path d="M139.36 400.242C143.099 385.521 148.263 365.692 148.263 365.692C148.263 365.692 150.272 366.103 153.435 366.567C158.055 367.255 162.711 367.679 167.379 367.835C173.355 368.001 179.646 367.607 184.512 365.919C186.347 365.33 188.061 364.414 189.571 363.217C190.207 362.704 190.777 362.113 191.266 361.458C199.723 350.166 203.244 393.209 203.244 393.209L203.9 400.242L139.36 400.242Z" fill="#B17FE2"/>
<path d="M206.923 445.725C206.643 445.725 206.364 445.734 206.084 445.751L206.486 444.999C206.626 445.235 206.765 445.48 206.923 445.725Z" fill="#FFB8B8"/>
<path d="M168.595 297.438C167.743 297.375 166.889 297.54 166.122 297.918C165.429 298.425 164.857 299.081 164.45 299.837C162.57 302.668 160.119 305.075 157.255 306.902C155.117 308.263 152.399 309.96 152.765 312.47C152.963 313.312 153.317 314.109 153.807 314.821C155.786 318.316 156.574 322.362 156.051 326.346L161.929 317.792C162.863 316.434 164.484 314.901 165.892 315.754C166.364 316.04 166.674 316.552 167.165 316.802C168.337 317.4 169.584 316.257 170.621 315.448C174.199 312.656 179.286 313.388 183.738 314.257C185.839 314.668 188.148 315.207 189.39 316.953C191.454 319.854 189.299 324.046 190.504 327.398C190.841 327.162 191.127 326.86 191.346 326.511C191.565 326.161 191.711 325.772 191.776 325.365C193.457 325.417 195.516 325.251 196.236 323.73C196.455 323.134 196.572 322.505 196.581 321.87C196.846 319.315 198.093 316.984 198.92 314.552C199.746 312.12 200.106 309.27 198.711 307.114C198.201 306.384 197.585 305.733 196.883 305.184C188.968 298.526 178.562 297.428 168.595 297.438Z" fill="#2F2E41"/>
<path d="M166.593 366.392C161.77 360.872 158.904 352.825 158.773 352.467V352.458C158.773 352.458 151.085 348.05 148.97 352.283C146.856 356.516 127.119 367.1 125.005 367.1C124.988 367.108 124.97 367.113 124.952 367.118C124.114 367.397 113.612 371.22 110.912 385.451C110.179 390.348 109.788 395.29 109.741 400.242H167.222C167.816 394.005 168.262 388.171 168.436 383.133C168.69 376.109 168.445 370.651 167.379 367.835C167.209 367.309 166.942 366.82 166.593 366.392V366.392Z" fill="#2F2E41"/>
<path d="M216.018 370.363C215.983 370.196 215.957 370.057 215.931 369.925C215.837 369.55 215.677 369.195 215.459 368.876C215.454 368.868 215.451 368.859 215.45 368.849C211.379 362.534 185.194 353.84 185.194 353.84L184.215 357.225C184.215 357.225 184.338 360.566 184.512 365.919C184.687 370.931 184.897 377.701 185.098 385.136C185.238 389.99 185.36 395.134 185.473 400.242H224.641C222.447 390.098 219.565 380.115 216.018 370.363Z" fill="#2F2E41"/>
<path d="M582.482 400.242L585.479 385.582L588.266 384.401L588.283 384.41C588.537 384.506 591.569 385.792 591.569 390.664C591.569 391.644 591.42 395.169 591.175 400.242H582.482Z" fill="#575A89"/>
<path d="M551.005 349.038C564.446 349.038 575.342 338.129 575.342 324.673C575.342 311.217 564.446 300.308 551.005 300.308C537.564 300.308 526.668 311.217 526.668 324.673C526.668 338.129 537.564 349.038 551.005 349.038Z" fill="#FFB8B8"/>
<path d="M566.216 338.886L564.187 380.508L532.752 362.235L536.808 338.886H566.216Z" fill="#FFB8B8"/>
<path d="M575.344 382.538L573.282 400.242H556.778L538.867 365.788L533.817 356.088L531.397 354.505L534.201 353.866L536.412 355.467L561.146 373.407L565.113 361.485L565.218 361.179L566.214 358.178L575.344 382.538Z" fill="#B17FE2"/>
<path d="M536.301 300.816C536.301 300.816 539.343 285.588 556.582 288.633L554.554 289.648C554.554 289.648 570.779 287.618 568.751 296.755C568.751 296.755 581.934 304.876 578.892 314.013C577.103 319.309 575.746 324.741 574.835 330.256L571.793 327.211C571.793 327.211 568.751 306.907 550.498 308.937C536.808 310.46 531.231 316.932 529.805 321.595C529.148 323.788 528.31 325.922 527.3 327.976L526.161 328.226C526.161 328.226 520.076 305.892 536.301 300.816Z" fill="#2F2E41"/>
<path d="M588.283 384.41L588.266 384.401L575.344 372.383V364.266L565.366 356.394L565.218 361.179L564.187 393.708L547.595 370.861L536.412 355.467L534.402 352.712L534.892 350.131L528.697 357.155L506.278 373.993L504.356 375.436C502.151 377.645 500.118 380.019 498.275 382.538C497.672 383.439 494.929 390.612 491.355 400.242H591.175C591.42 395.169 591.569 391.644 591.569 390.664C591.569 385.792 588.537 384.506 588.283 384.41Z" fill="#2F2E41"/>
<path d="M355.148 297.91C338.656 297.91 325.287 312.763 325.287 331.086V354.365H332.439L336.579 345.74L335.544 354.365H381.512L385.276 346.524L384.335 354.365H389.51V336.087C389.51 315.002 374.126 297.91 355.148 297.91Z" fill="#2F2E41"/>
<path d="M331.049 400.242H311.627L311.443 384.384C311.435 384.218 311.435 384.06 311.435 383.894L315.323 379.512L315.392 379.433L330.237 388.845L331.049 400.242Z" fill="#D0CDE1"/>
<path d="M352.506 351.112C364.247 351.112 373.764 341.584 373.764 329.831C373.764 318.077 364.247 308.549 352.506 308.549C340.766 308.549 331.248 318.077 331.248 329.831C331.248 341.584 340.766 351.112 352.506 351.112Z" fill="#FBBEBE"/>
<path d="M340.318 342.6C340.318 342.6 346.554 374.948 343.719 378.353C340.885 381.758 373.764 372.111 373.764 372.111C373.764 372.111 362.993 349.977 368.662 337.492L340.318 342.6Z" fill="#FBBEBE"/>
<path d="M397.992 364.476H397.983C397.482 363.416 396.617 362.571 395.546 362.097C391.378 360.339 387.787 358.992 384.834 357.968C379.611 356.174 373.912 356.351 368.81 358.467C368.312 358.668 367.823 358.887 367.343 359.132C367.343 359.132 346.557 363.094 344.085 362.596C343.901 362.561 343.709 362.534 343.526 362.517C343.152 362.463 342.776 362.431 342.398 362.421C337.562 362.196 332.765 363.387 328.594 365.849C321.77 369.812 311.653 376.835 311.443 383.675L311.251 383.894L311.443 400.242H402.675C402.858 384.576 402.963 372.803 402.963 372.007C402.963 369.532 397.992 364.476 397.992 364.476Z" fill="#B17FE2"/>
<path d="M363.637 307.049C362.2 305.117 360.338 303.543 358.195 302.448C356.052 301.353 353.686 300.767 351.28 300.736H350.694C339.39 300.736 330.227 310.976 330.227 323.607V323.607H334.015L334.626 318.946L335.523 323.607H357.987L359.869 319.664L359.398 323.607H363.817C365.88 333.86 362.917 344.113 354.929 354.365H362.457L366.221 346.479L365.28 354.365H379.63L382.453 336.226C382.453 322.641 374.568 311.122 363.637 307.049Z" fill="#2F2E41"/>
<path d="M367.763 308.959C373.94 308.959 378.947 303.946 378.947 297.762C378.947 291.578 373.94 286.565 367.763 286.565C361.586 286.565 356.579 291.578 356.579 297.762C356.579 303.946 361.586 308.959 367.763 308.959Z" fill="#2F2E41"/>
</g>
<defs>
<clipPath id="clip0_15_657">
<rect width="714" height="458" fill="white"/>
</clipPath>
</defs>
</svg>
