<?xml version="1.0" standalone="no"?>
<!DOCTYPE svg PUBLIC "-//W3C//DTD SVG 20010904//EN"
 "http://www.w3.org/TR/2001/REC-SVG-20010904/DTD/svg10.dtd">
<svg version="1.0" xmlns="http://www.w3.org/2000/svg"
 width="300.000000pt" height="300.000000pt" viewBox="0 0 300.000000 300.000000"
 preserveAspectRatio="xMidYMid meet">
<metadata>
Created by potrace 1.10, written by Peter Selinger 2001-2011
</metadata>
<g transform="translate(0.000000,300.000000) scale(0.100000,-0.100000)"
fill="#000000" stroke="none">
<path d="M1430 2351 c-25 -5 -48 -7 -51 -5 -7 4 -135 -28 -187 -47 -209 -75
-414 -280 -492 -492 -76 -208 -60 -334 51 -396 35 -20 52 -21 422 -21 l384 0
47 -96 c26 -53 60 -117 76 -141 17 -24 30 -47 30 -51 0 -7 -228 3 -295 13
-217 30 -321 49 -435 79 -52 14 -106 28 -120 32 l-25 6 25 -14 c36 -20 238
-82 345 -106 219 -49 343 -68 469 -71 71 -2 81 -5 98 -27 11 -13 26 -31 34
-38 25 -25 16 -28 -63 -22 -43 3 -113 9 -156 12 -173 12 -472 86 -667 164 -80
32 -138 40 -156 23 -25 -25 -16 -66 30 -134 98 -146 245 -260 416 -323 197
-72 412 -69 610 9 81 32 213 120 283 190 69 68 181 231 189 272 1 5 7 23 15
41 16 39 33 118 40 185 8 85 -31 159 -105 201 -36 19 -50 20 -417 17 l-380 -2
-69 135 c-38 75 -73 136 -78 136 -4 0 -8 6 -8 13 0 9 28 11 122 6 205 -11 449
-50 638 -101 113 -31 118 -32 98 -18 -29 18 -254 88 -356 110 -53 11 -117 25
-142 30 -80 18 -243 37 -324 39 -71 2 -81 5 -98 27 -11 13 -26 31 -34 38 -25
25 -16 29 59 22 39 -3 106 -9 147 -11 101 -7 219 -24 253 -37 15 -6 38 -12 50
-13 55 -6 247 -66 372 -116 103 -40 137 -46 158 -24 29 28 20 69 -30 141 -135
194 -350 329 -573 360 -71 9 -160 12 -200 5z m274 -51 c86 -23 206 -74 218
-93 4 -7 11 -12 17 -12 14 0 92 -59 151 -117 91 -87 152 -193 122 -212 -12 -7
-81 10 -137 35 -28 13 -57 24 -67 26 -9 1 -41 12 -72 24 -46 17 -54 23 -47 37
4 9 11 35 14 56 4 21 15 48 25 60 46 51 28 78 -58 90 -97 13 -167 8 -276 -20
-95 -24 -114 -33 -148 -66 l-39 -38 -109 2 c-97 3 -111 1 -123 -16 -22 -29 8
-80 67 -115 27 -16 35 -27 31 -41 -6 -22 15 -80 28 -80 5 0 9 -4 9 -8 0 -5 20
-45 44 -90 24 -45 42 -82 40 -82 -3 0 7 -12 21 -27 l25 -28 371 3 c354 3 373
2 413 -17 60 -30 96 -90 96 -161 0 -153 -96 -355 -230 -486 -72 -71 -201 -164
-227 -164 -7 0 -13 -4 -13 -8 0 -7 -79 -36 -131 -48 -10 -2 -29 -7 -41 -10
-117 -30 -294 -23 -417 17 -54 18 -181 79 -181 87 0 5 24 5 54 2 64 -7 122 -5
196 6 30 4 58 8 62 8 3 1 10 4 14 9 4 4 15 7 24 7 30 0 139 60 145 81 6 19 14
20 114 17 80 -2 112 1 124 11 18 15 23 51 7 51 -5 0 -10 5 -10 12 0 21 -43 58
-68 58 -21 0 -23 3 -17 28 4 20 -2 42 -21 77 -15 28 -46 89 -70 136 -24 47
-51 92 -60 100 -14 11 -90 15 -400 19 -367 5 -384 6 -410 26 -71 53 -90 114
-68 221 33 160 105 293 222 409 81 79 79 78 151 124 185 118 423 155 635 100z
m232 -143 c4 -4 -7 -20 -25 -35 -28 -23 -34 -36 -39 -80 -2 -29 -7 -52 -10
-52 -3 0 -33 9 -66 19 -98 31 -227 58 -316 66 -43 4 -45 5 -35 13 15 13 91 42
165 63 51 14 93 18 192 16 70 -2 130 -6 134 -10z m-1038 -1053 c18 -7 36 -14
40 -15 4 -1 41 -15 82 -30 l75 -27 -3 -49 c-2 -30 -12 -62 -28 -86 -16 -25
-23 -45 -19 -58 7 -20 6 -20 -25 -4 -41 21 -176 156 -185 184 -3 12 -10 21
-14 21 -5 0 -14 14 -21 30 -10 24 -10 33 0 45 13 16 39 13 98 -11z m347 -123
c103 -28 113 -30 218 -45 48 -7 90 -15 93 -19 9 -9 -83 -46 -170 -68 -66 -17
-103 -20 -198 -17 -65 2 -120 7 -124 11 -4 3 7 19 24 35 31 29 50 87 38 118
-7 19 -8 19 119 -15z"/>
</g>
</svg>
