<?xml version="1.0" standalone="no"?>
<!DOCTYPE svg PUBLIC "-//W3C//DTD SVG 20010904//EN"
 "http://www.w3.org/TR/2001/REC-SVG-20010904/DTD/svg10.dtd">
<svg version="1.0" xmlns="http://www.w3.org/2000/svg"
 width="424.000000pt" height="423.000000pt" viewBox="0 0 424.000000 423.000000"
 preserveAspectRatio="xMidYMid meet">
<metadata>
Created by potrace 1.16, written by Peter Selinger 2001-2019
</metadata>
<g transform="translate(0.000000,423.000000) scale(0.100000,-0.100000)"
fill="#af7bff" stroke="none">
<path d="M1915 3705 c-71 -7 -148 -20 -171 -28 -22 -8 -76 -23 -120 -32 -142
-32 -349 -131 -509 -244 -382 -269 -651 -702 -719 -1160 -18 -121 -10 -184 33
-277 40 -85 99 -147 180 -187 l66 -32 786 -3 786 -2 29 -62 c52 -110 175 -341
230 -431 30 -49 54 -93 54 -98 0 -12 -96 -11 -285 1 -369 25 -949 120 -1309
215 -72 19 -131 33 -133 31 -7 -6 201 -86 332 -127 181 -56 454 -121 690 -163
263 -47 391 -63 618 -78 184 -12 188 -13 204 -38 9 -14 33 -46 55 -71 21 -26
38 -52 38 -59 0 -26 -563 16 -800 59 -323 60 -665 160 -1065 311 -189 72 -232
75 -286 20 -51 -51 -38 -116 49 -249 275 -419 735 -706 1231 -770 107 -14 341
-14 451 -1 438 54 863 294 1142 645 82 103 159 227 153 244 -3 9 -3 12 1 8 10
-10 65 93 57 106 -3 6 -1 7 5 3 7 -4 12 -4 13 1 2 13 10 217 9 228 0 6 -2 106
-4 223 -3 146 -1 212 7 212 6 0 7 3 3 7 -4 4 -22 6 -40 5 -43 -3 -69 21 -64
59 4 24 2 26 -16 19 -14 -5 -23 -19 -26 -41 -3 -22 -11 -35 -22 -37 -16 -3
-18 5 -18 57 l0 60 40 -1 c22 0 40 -4 40 -9 0 -5 11 -2 24 6 14 10 34 13 48
10 37 -9 53 16 28 43 -11 12 -20 26 -20 32 0 13 -61 51 -72 44 -4 -3 -8 -1 -8
4 0 29 -108 34 -857 39 l-761 6 -33 71 c-46 99 -160 313 -226 424 -31 51 -53
95 -50 99 11 10 453 -17 602 -37 361 -48 503 -72 819 -140 104 -22 191 -38
193 -36 2 2 -15 11 -39 19 -24 9 -63 23 -88 32 -374 137 -1159 284 -1517 285
l-62 0 -54 68 c-29 37 -57 73 -62 81 -7 12 24 13 206 8 490 -13 918 -100 1474
-298 317 -113 346 -121 395 -116 57 6 90 42 90 97 0 51 -12 81 -67 165 -197
302 -475 534 -803 668 -103 42 -159 58 -315 92 -150 32 -369 40 -560 20z
m1039 -380 c38 -8 72 -17 75 -21 3 -3 -18 -27 -46 -52 -69 -61 -92 -115 -93
-209 0 -40 -2 -73 -4 -73 -2 0 -66 18 -143 40 -175 50 -431 106 -597 130 -70
10 -131 21 -133 24 -10 10 170 88 270 117 90 26 211 52 297 63 65 8 304 -4
374 -19z m-1443 -2396 c152 -44 442 -106 593 -128 76 -11 141 -22 144 -25 8
-9 -152 -80 -243 -109 -168 -53 -379 -82 -515 -71 -76 6 -239 32 -253 41 -4 2
16 25 44 51 69 62 89 107 89 205 0 77 0 78 23 71 12 -4 65 -19 118 -35z"/>
</g>
</svg>
